<?xml version="1.0" encoding="UTF-8"?>
<!DOCTYPE svg PUBLIC "-//W3C//DTD SVG 1.1//EN" "http://www.w3.org/Graphics/SVG/1.1/DTD/svg11.dtd">
<svg xmlns="http://www.w3.org/2000/svg" version="1.1" width="300px" height="300px" style="shape-rendering:geometricPrecision; text-rendering:geometricPrecision; image-rendering:optimizeQuality; fill-rule:evenodd; clip-rule:evenodd" xmlns:xlink="http://www.w3.org/1999/xlink">
<g><path style="opacity:1" fill="#dfd8d3" d="M 188.5,66.5 C 195.246,68.9709 201.913,71.6376 208.5,74.5C 207.687,75.6527 206.687,75.6527 205.5,74.5C 204.304,74.8457 204.304,75.3457 205.5,76C 225.92,84.362 243.253,96.862 257.5,113.5C 256.311,114.429 254.978,114.762 253.5,114.5C 254.235,118.293 256.235,121.293 259.5,123.5C 261.309,126.419 262.476,129.419 263,132.5C 261.667,131.167 260.333,129.833 259,128.5C 259.617,130.095 259.284,131.428 258,132.5C 256.413,131.273 255.079,131.606 254,133.5C 253.692,132.692 253.192,132.025 252.5,131.5C 252.167,132.833 251.833,134.167 251.5,135.5C 244.972,126.103 237.305,117.769 228.5,110.5C 208.63,94.7429 185.963,85.2429 160.5,82C 155.511,81.5007 150.511,81.3341 145.5,81.5C 147.539,80.4217 149.706,79.4217 152,78.5C 154.349,76.2557 153.849,75.0891 150.5,75C 152.749,74.1368 154.582,74.6368 156,76.5C 157.333,73.8333 158.667,73.8333 160,76.5C 161.067,75.8095 162.234,75.3095 163.5,75C 162.396,73.8687 162.729,73.0354 164.5,72.5C 165.086,72.7093 165.586,73.0426 166,73.5C 172.571,71.0588 179.238,71.0588 186,73.5C 186.945,73.0946 187.612,72.428 188,71.5C 189.049,72.5171 190.216,72.6838 191.5,72C 189.754,69.7415 187.42,68.4082 184.5,68C 186.058,67.79 187.391,67.29 188.5,66.5 Z"/></g>
<g><path style="opacity:0.137" fill="#c0bbb7" d="M 159.5,61.5 C 159.881,62.9311 160.881,63.7645 162.5,64C 166.5,64.6667 170.5,65.3333 174.5,66C 175.833,66.6667 175.833,67.3333 174.5,68C 176.301,68.3173 176.634,68.984 175.5,70C 163.185,69.748 150.851,69.5813 138.5,69.5C 144.653,68.6721 150.987,68.1721 157.5,68C 154.833,67 154.833,66 157.5,65C 135.83,63.0012 114.83,66.0012 94.5,74C 53.5241,91.9977 25.5241,121.998 10.5,164C 11.0104,165.826 11.8438,165.993 13,164.5C 13.2321,165.737 13.7321,166.737 14.5,167.5C 11.0264,183.595 9.19305,199.929 9,216.5C 8.66667,213.167 8.33333,209.833 8,206.5C 6.64387,207.38 5.14387,207.714 3.5,207.5C 3.25838,201.792 3.59171,196.125 4.5,190.5C 4.54656,188.962 3.87989,187.962 2.5,187.5C 11.2885,139.233 36.9552,103.066 79.5,79C 104.562,66.2369 131.229,60.4036 159.5,61.5 Z"/></g>
<g><path style="opacity:1" fill="#d5cecc" d="M 159.5,61.5 C 169.263,62.7038 178.93,64.3704 188.5,66.5C 187.391,67.29 186.058,67.79 184.5,68C 187.42,68.4082 189.754,69.7415 191.5,72C 190.216,72.6838 189.049,72.5171 188,71.5C 187.612,72.428 186.945,73.0946 186,73.5C 179.238,71.0588 172.571,71.0588 166,73.5C 165.586,73.0426 165.086,72.7093 164.5,72.5C 162.729,73.0354 162.396,73.8687 163.5,75C 162.234,75.3095 161.067,75.8095 160,76.5C 158.667,73.8333 157.333,73.8333 156,76.5C 154.582,74.6368 152.749,74.1368 150.5,75C 153.849,75.0891 154.349,76.2557 152,78.5C 149.706,79.4217 147.539,80.4217 145.5,81.5C 107.618,83.6909 76.4517,99.3576 52,128.5C 35.201,149.028 25.701,172.695 23.5,199.5C 21.221,201.126 18.8877,201.959 16.5,202C 16.8333,202.333 17.1667,202.667 17.5,203C 15.1391,203.197 13.4724,204.364 12.5,206.5C 12.0894,205.738 11.9227,204.738 12,203.5C 9.57028,213.93 10.4036,224.096 14.5,234C 11.9644,234.186 9.63104,234.686 7.5,235.5C 6.5041,235.586 5.67076,235.252 5,234.5C 0.144245,219.052 -0.689089,203.385 2.5,187.5C 3.87989,187.962 4.54656,188.962 4.5,190.5C 3.59171,196.125 3.25838,201.792 3.5,207.5C 5.14387,207.714 6.64387,207.38 8,206.5C 8.33333,209.833 8.66667,213.167 9,216.5C 9.19305,199.929 11.0264,183.595 14.5,167.5C 34.3003,116.101 70.967,83.9343 124.5,71C 129.156,70.3345 133.823,69.8345 138.5,69.5C 150.851,69.5813 163.185,69.748 175.5,70C 176.634,68.984 176.301,68.3173 174.5,68C 175.833,67.3333 175.833,66.6667 174.5,66C 170.5,65.3333 166.5,64.6667 162.5,64C 160.881,63.7645 159.881,62.9311 159.5,61.5 Z"/></g>
<g><path style="opacity:0.999" fill="#8d8886" d="M 138.5,69.5 C 133.823,69.8345 129.156,70.3345 124.5,71C 70.967,83.9343 34.3003,116.101 14.5,167.5C 13.7321,166.737 13.2321,165.737 13,164.5C 11.8438,165.993 11.0104,165.826 10.5,164C 25.5241,121.998 53.5241,91.9977 94.5,74C 114.83,66.0012 135.83,63.0012 157.5,65C 154.833,66 154.833,67 157.5,68C 150.987,68.1721 144.653,68.6721 138.5,69.5 Z"/></g>
<g><path style="opacity:1" fill="#f6ebe6" d="M 208.5,74.5 C 259.1,97.9425 288.6,137.276 297,192.5C 298.207,206.677 297.207,220.677 294,234.5C 293.25,235.126 292.416,235.626 291.5,236C 279.5,236.667 267.5,236.667 255.5,236C 253.404,234.066 252.404,231.566 252.5,228.5C 261.569,168.961 238.569,127.294 183.5,103.5C 183.082,102.778 182.416,102.278 181.5,102C 186.319,102.293 190.653,103.96 194.5,107C 196.903,107.63 198.737,106.797 200,104.5C 200.333,102.167 200.667,99.8333 201,97.5C 202.688,99.0449 204.688,100.045 207,100.5C 207.333,100.167 207.667,99.8333 208,99.5C 208.202,101.256 208.702,102.922 209.5,104.5C 211.295,103.735 213.128,103.068 215,102.5C 215.128,104.214 215.962,105.881 217.5,107.5C 220.278,105.341 222.611,106.008 224.5,109.5C 225.736,110.246 227.07,110.579 228.5,110.5C 237.305,117.769 244.972,126.103 251.5,135.5C 251.833,134.167 252.167,132.833 252.5,131.5C 253.192,132.025 253.692,132.692 254,133.5C 255.079,131.606 256.413,131.273 258,132.5C 259.284,131.428 259.617,130.095 259,128.5C 260.333,129.833 261.667,131.167 263,132.5C 262.476,129.419 261.309,126.419 259.5,123.5C 256.235,121.293 254.235,118.293 253.5,114.5C 254.978,114.762 256.311,114.429 257.5,113.5C 243.253,96.862 225.92,84.362 205.5,76C 204.304,75.3457 204.304,74.8457 205.5,74.5C 206.687,75.6527 207.687,75.6527 208.5,74.5 Z"/></g>
<g><path style="opacity:1" fill="#f2e8e4" d="M 145.5,81.5 C 150.511,81.3341 155.511,81.5007 160.5,82C 185.963,85.2429 208.63,94.7429 228.5,110.5C 227.07,110.579 225.736,110.246 224.5,109.5C 222.611,106.008 220.278,105.341 217.5,107.5C 215.962,105.881 215.128,104.214 215,102.5C 213.128,103.068 211.295,103.735 209.5,104.5C 208.702,102.922 208.202,101.256 208,99.5C 207.667,99.8333 207.333,100.167 207,100.5C 204.688,100.045 202.688,99.0449 201,97.5C 200.667,99.8333 200.333,102.167 200,104.5C 198.737,106.797 196.903,107.63 194.5,107C 190.653,103.96 186.319,102.293 181.5,102C 182.416,102.278 183.082,102.778 183.5,103.5C 128.534,89.7556 85.7011,106.422 55,153.5C 42.1238,177.378 38.9572,202.545 45.5,229C 45.4367,232.092 44.1034,234.425 41.5,236C 29.9924,236.826 18.6591,236.659 7.5,235.5C 9.63104,234.686 11.9644,234.186 14.5,234C 10.4036,224.096 9.57028,213.93 12,203.5C 11.9227,204.738 12.0894,205.738 12.5,206.5C 13.4724,204.364 15.1391,203.197 17.5,203C 17.1667,202.667 16.8333,202.333 16.5,202C 18.8877,201.959 21.221,201.126 23.5,199.5C 25.701,172.695 35.201,149.028 52,128.5C 76.4517,99.3576 107.618,83.6909 145.5,81.5 Z"/></g>
<g><path style="opacity:1" fill="#ddd6d2" d="M 185.5,117.5 C 184.737,118.268 183.737,118.768 182.5,119C 184.488,119.938 186.488,120.772 188.5,121.5C 190.563,124.44 189.563,126.606 185.5,128C 186.328,128.915 187.328,129.581 188.5,130C 186.038,131.216 183.371,131.882 180.5,132C 181.448,132.483 182.448,132.649 183.5,132.5C 183.677,134.981 182.677,136.814 180.5,138C 181.094,138.464 181.761,138.631 182.5,138.5C 179.833,141.167 179.833,143.833 182.5,146.5C 181.504,146.586 180.671,146.252 180,145.5C 179.667,143.833 179.333,142.167 179,140.5C 178.319,142.895 177.485,145.228 176.5,147.5C 173.525,147.066 170.525,147.566 167.5,149C 165.081,150.509 164.081,152.675 164.5,155.5C 160.921,155.766 160.587,157.099 163.5,159.5C 159.961,160.063 156.294,161.23 152.5,163C 154.901,163.805 154.734,164.638 152,165.5C 151.577,164.044 150.744,163.544 149.5,164C 149.833,164.333 150.167,164.667 150.5,165C 149.167,166.333 147.833,167.667 146.5,169C 148.921,171.579 148.421,172.413 145,171.5C 143.779,172.272 142.779,173.272 142,174.5C 140.667,172.833 139.333,171.167 138,169.5C 137.282,170.451 136.449,170.617 135.5,170C 136.696,169.346 136.696,168.846 135.5,168.5C 134.719,169.737 133.719,170.737 132.5,171.5C 130.664,170.204 128.664,169.37 126.5,169C 128.883,168.935 129.55,168.102 128.5,166.5C 129.718,166.891 130.552,166.224 131,164.5C 132.333,165.167 133.667,165.833 135,166.5C 135.448,164.591 134.615,163.424 132.5,163C 132.833,162.667 133.167,162.333 133.5,162C 131.114,162.351 128.781,162.185 126.5,161.5C 131.397,152.036 128.397,148.036 117.5,149.5C 117.663,147.143 117.497,144.81 117,142.5C 116.503,145.146 116.336,147.813 116.5,150.5C 120.362,150.066 122.695,150.4 123.5,151.5C 120.833,151.5 118.167,151.5 115.5,151.5C 115.789,148.351 115.289,145.351 114,142.5C 112.612,141.446 111.112,141.28 109.5,142C 108.718,144.74 108.218,147.574 108,150.5C 105.26,151.282 102.426,151.782 99.5,152C 96.1057,153.565 95.7723,155.565 98.5,158C 100.81,158.497 103.143,158.663 105.5,158.5C 104.088,159.533 102.422,160.199 100.5,160.5C 98.8453,159.772 97.1786,159.605 95.5,160C 98.6883,161.316 102.022,161.816 105.5,161.5C 104.211,168.026 106.877,170.86 113.5,170C 112.167,170.333 110.833,170.667 109.5,171C 112.257,171.782 114.757,171.282 117,169.5C 118.067,170.191 119.234,170.691 120.5,171C 117.456,171.359 117.122,172.026 119.5,173C 117.497,174.334 115.997,175.834 115,177.5C 113.294,176.692 112.461,175.359 112.5,173.5C 110.459,173.854 108.626,173.854 107,173.5C 105.173,175.302 104.006,177.468 103.5,180C 105.809,182.051 107.976,181.884 110,179.5C 110.318,181.061 111.151,182.228 112.5,183C 109.174,183.172 105.841,183.005 102.5,182.5C 102.65,185.926 101.484,186.259 99,183.5C 98.6667,183.833 98.3333,184.167 98,184.5C 96.8061,183.57 95.4728,182.903 94,182.5C 92.1444,183.736 90.3111,183.736 88.5,182.5C 86.8513,183.648 85.3513,184.981 84,186.5C 83.5439,187.744 84.0439,188.577 85.5,189C 84.6753,190.688 83.6753,190.855 82.5,189.5C 80.9677,192.75 79.1344,193.084 77,190.5C 76.6667,191.167 76.3333,191.833 76,192.5C 75.3292,191.748 74.4959,191.414 73.5,191.5C 73.6741,189.139 74.0074,186.806 74.5,184.5C 77.1167,164.767 85.45,147.934 99.5,134C 104.542,130.479 109.875,127.479 115.5,125C 118.482,124.502 121.482,124.335 124.5,124.5C 124.5,122.167 124.5,119.833 124.5,117.5C 99.8353,122.325 83.3353,136.659 75,160.5C 72.1141,167.988 69.9475,175.654 68.5,183.5C 66.3298,190.566 65.4964,197.899 66,205.5C 66.3879,206.428 67.0546,207.095 68,207.5C 69.7275,207.101 71.2275,206.434 72.5,205.5C 73.3058,206.997 73.9724,208.664 74.5,210.5C 71.5535,211.321 68.5535,211.321 65.5,210.5C 64.9736,206.688 64.3069,203.021 63.5,199.5C 65.6498,177.55 72.4832,157.217 84,138.5C 93.4008,127.763 104.901,120.263 118.5,116C 122.167,115.333 125.833,115.333 129.5,116C 131.5,119 133.5,122 135.5,125C 140.056,126.109 144.722,126.609 149.5,126.5C 153.5,126.333 157.5,126.167 161.5,126C 164.883,124.62 166.716,122.12 167,118.5C 167.903,117.299 169.069,116.465 170.5,116C 175.663,115.183 180.663,115.683 185.5,117.5 Z M 123.5,151.5 C 126.313,152.743 126.979,154.743 125.5,157.5C 122.557,158.244 119.557,158.744 116.5,159C 114.66,161.826 113.994,164.993 114.5,168.5C 112.5,168.5 110.5,168.5 108.5,168.5C 108.664,165.813 108.497,163.146 108,160.5C 107.292,159.619 106.458,158.953 105.5,158.5C 103.143,158.663 100.81,158.497 98.5,158C 95.7723,155.565 96.1057,153.565 99.5,152C 102.426,151.782 105.26,151.282 108,150.5C 108.218,147.574 108.718,144.74 109.5,142C 111.112,141.28 112.612,141.446 114,142.5C 115.289,145.351 115.789,148.351 115.5,151.5C 118.167,151.5 120.833,151.5 123.5,151.5 Z"/></g>
<g><path style="opacity:0.997" fill="#a8a3a1" d="M 168.5,122.5 C 169.972,128.272 167.639,132.106 161.5,134C 153.167,134.667 144.833,134.667 136.5,134C 133.241,131.978 131.741,129.145 132,125.5C 142.563,130.295 153.397,130.795 164.5,127C 166.041,125.629 167.375,124.129 168.5,122.5 Z"/></g>
<g><path style="opacity:1" fill="#97928e" d="M 74.5,184.5 C 73.1667,184.5 71.8333,184.5 70.5,184.5C 69.7325,188.139 69.0658,187.806 68.5,183.5C 69.9475,175.654 72.1141,167.988 75,160.5C 83.3353,136.659 99.8353,122.325 124.5,117.5C 124.5,119.833 124.5,122.167 124.5,124.5C 121.482,124.335 118.482,124.502 115.5,125C 109.875,127.479 104.542,130.479 99.5,134C 85.45,147.934 77.1167,164.767 74.5,184.5 Z"/></g>
<g><path style="opacity:1" fill="#ebe2de" d="M 188.5,121.5 C 196.229,124.787 203.063,129.454 209,135.5C 210.819,143.277 212.819,150.943 215,158.5C 215.818,164.902 215.484,171.235 214,177.5C 211.033,178.415 209.2,180.415 208.5,183.5C 205.705,184.461 203.705,186.294 202.5,189C 198.577,189.793 194.744,189.626 191,188.5C 191.127,191.383 191.793,194.05 193,196.5C 187.092,191.584 180.926,187.084 174.5,183C 167.892,179.934 160.892,178.767 153.5,179.5C 154.172,178.733 155.005,178.066 156,177.5C 159.708,178.638 163.375,178.638 167,177.5C 167.915,176.672 168.581,175.672 169,174.5C 169.423,175.956 170.256,176.456 171.5,176C 172.622,173.787 172.622,171.287 171.5,168.5C 167.551,168.307 167.551,167.807 171.5,167C 170.529,165.796 169.529,165.296 168.5,165.5C 170.135,164.319 171.802,164.319 173.5,165.5C 173.736,164.753 174.07,163.92 174.5,163C 170.558,161.208 167.224,158.708 164.5,155.5C 164.081,152.675 165.081,150.509 167.5,149C 170.525,147.566 173.525,147.066 176.5,147.5C 177.485,145.228 178.319,142.895 179,140.5C 179.333,142.167 179.667,143.833 180,145.5C 180.671,146.252 181.504,146.586 182.5,146.5C 188.21,147.133 190.21,144.799 188.5,139.5C 186.591,138.652 184.591,138.318 182.5,138.5C 181.761,138.631 181.094,138.464 180.5,138C 182.677,136.814 183.677,134.981 183.5,132.5C 182.448,132.649 181.448,132.483 180.5,132C 183.371,131.882 186.038,131.216 188.5,130C 187.328,129.581 186.328,128.915 185.5,128C 189.563,126.606 190.563,124.44 188.5,121.5 Z M 196.5,149.5 C 201.547,149.376 203.38,151.709 202,156.5C 198.225,158.852 195.392,157.852 193.5,153.5C 194.172,151.84 195.172,150.507 196.5,149.5 Z M 171.5,149.5 C 175.839,150.976 176.839,153.476 174.5,157C 169.296,158.292 167.296,156.459 168.5,151.5C 169.602,150.824 170.602,150.158 171.5,149.5 Z M 184.5,160.5 C 190.828,163.412 190.995,166.412 185,169.5C 182.203,169.203 180.703,167.703 180.5,165C 181.167,162.849 182.5,161.349 184.5,160.5 Z"/></g>
<g><path style="opacity:1" fill="#f6ece7" d="M 185.5,117.5 C 201.011,123.523 212.844,133.856 221,148.5C 229.433,165.898 234.266,184.231 235.5,203.5C 235.496,226.355 224.496,235.188 202.5,230C 194.635,224.116 188.802,216.616 185,207.5C 181.448,204.281 177.615,201.448 173.5,199C 159.531,197.516 145.531,197.183 131.5,198C 123.609,197.862 117.443,201.028 113,207.5C 109.745,217.079 103.912,224.579 95.5,230C 75.3205,235.05 64.3205,227.05 62.5,206C 63.0767,203.863 63.41,201.696 63.5,199.5C 64.3069,203.021 64.9736,206.688 65.5,210.5C 66.2389,214.176 67.5723,217.51 69.5,220.5C 73.6329,218.683 77.6329,216.683 81.5,214.5C 87.9817,206.185 95.315,198.685 103.5,192C 118.073,180.116 134.74,175.949 153.5,179.5C 160.892,178.767 167.892,179.934 174.5,183C 180.926,187.084 187.092,191.584 193,196.5C 191.793,194.05 191.127,191.383 191,188.5C 194.744,189.626 198.577,189.793 202.5,189C 203.705,186.294 205.705,184.461 208.5,183.5C 209.2,180.415 211.033,178.415 214,177.5C 215.484,171.235 215.818,164.902 215,158.5C 212.819,150.943 210.819,143.277 209,135.5C 203.063,129.454 196.229,124.787 188.5,121.5C 186.488,120.772 184.488,119.938 182.5,119C 183.737,118.768 184.737,118.268 185.5,117.5 Z"/></g>
<g><path style="opacity:1" fill="#e4dcd8" d="M 164.5,155.5 C 167.224,158.708 170.558,161.208 174.5,163C 174.07,163.92 173.736,164.753 173.5,165.5C 171.802,164.319 170.135,164.319 168.5,165.5C 169.529,165.296 170.529,165.796 171.5,167C 167.551,167.807 167.551,168.307 171.5,168.5C 172.622,171.287 172.622,173.787 171.5,176C 170.256,176.456 169.423,175.956 169,174.5C 168.581,175.672 167.915,176.672 167,177.5C 163.375,178.638 159.708,178.638 156,177.5C 155.005,178.066 154.172,178.733 153.5,179.5C 134.74,175.949 118.073,180.116 103.5,192C 95.315,198.685 87.9817,206.185 81.5,214.5C 77.6329,216.683 73.6329,218.683 69.5,220.5C 67.5723,217.51 66.2389,214.176 65.5,210.5C 68.5535,211.321 71.5535,211.321 74.5,210.5C 73.9724,208.664 73.3058,206.997 72.5,205.5C 72.1805,200.637 72.5139,195.97 73.5,191.5C 74.4959,191.414 75.3292,191.748 76,192.5C 76.3333,191.833 76.6667,191.167 77,190.5C 79.1344,193.084 80.9677,192.75 82.5,189.5C 83.6753,190.855 84.6753,190.688 85.5,189C 84.0439,188.577 83.5439,187.744 84,186.5C 85.3513,184.981 86.8513,183.648 88.5,182.5C 90.3111,183.736 92.1444,183.736 94,182.5C 95.4728,182.903 96.8061,183.57 98,184.5C 98.3333,184.167 98.6667,183.833 99,183.5C 101.484,186.259 102.65,185.926 102.5,182.5C 105.841,183.005 109.174,183.172 112.5,183C 111.151,182.228 110.318,181.061 110,179.5C 107.976,181.884 105.809,182.051 103.5,180C 104.006,177.468 105.173,175.302 107,173.5C 108.626,173.854 110.459,173.854 112.5,173.5C 112.461,175.359 113.294,176.692 115,177.5C 115.997,175.834 117.497,174.334 119.5,173C 117.122,172.026 117.456,171.359 120.5,171C 119.234,170.691 118.067,170.191 117,169.5C 114.757,171.282 112.257,171.782 109.5,171C 110.833,170.667 112.167,170.333 113.5,170C 106.877,170.86 104.211,168.026 105.5,161.5C 102.022,161.816 98.6883,161.316 95.5,160C 97.1786,159.605 98.8453,159.772 100.5,160.5C 102.422,160.199 104.088,159.533 105.5,158.5C 106.458,158.953 107.292,159.619 108,160.5C 108.497,163.146 108.664,165.813 108.5,168.5C 110.5,168.5 112.5,168.5 114.5,168.5C 113.994,164.993 114.66,161.826 116.5,159C 119.557,158.744 122.557,158.244 125.5,157.5C 126.979,154.743 126.313,152.743 123.5,151.5C 122.695,150.4 120.362,150.066 116.5,150.5C 116.336,147.813 116.503,145.146 117,142.5C 117.497,144.81 117.663,147.143 117.5,149.5C 128.397,148.036 131.397,152.036 126.5,161.5C 128.781,162.185 131.114,162.351 133.5,162C 133.167,162.333 132.833,162.667 132.5,163C 134.615,163.424 135.448,164.591 135,166.5C 133.667,165.833 132.333,165.167 131,164.5C 130.552,166.224 129.718,166.891 128.5,166.5C 129.55,168.102 128.883,168.935 126.5,169C 128.664,169.37 130.664,170.204 132.5,171.5C 133.719,170.737 134.719,169.737 135.5,168.5C 136.696,168.846 136.696,169.346 135.5,170C 136.449,170.617 137.282,170.451 138,169.5C 139.333,171.167 140.667,172.833 142,174.5C 142.779,173.272 143.779,172.272 145,171.5C 148.421,172.413 148.921,171.579 146.5,169C 147.833,167.667 149.167,166.333 150.5,165C 150.167,164.667 149.833,164.333 149.5,164C 150.744,163.544 151.577,164.044 152,165.5C 154.734,164.638 154.901,163.805 152.5,163C 156.294,161.23 159.961,160.063 163.5,159.5C 160.587,157.099 160.921,155.766 164.5,155.5 Z"/></g>
<g><path style="opacity:1" fill="#bbb4b1" d="M 68.5,183.5 C 69.0658,187.806 69.7325,188.139 70.5,184.5C 71.8333,184.5 73.1667,184.5 74.5,184.5C 74.0074,186.806 73.6741,189.139 73.5,191.5C 72.5139,195.97 72.1805,200.637 72.5,205.5C 71.2275,206.434 69.7275,207.101 68,207.5C 67.0546,207.095 66.3879,206.428 66,205.5C 65.4964,197.899 66.3298,190.566 68.5,183.5 Z"/></g>
</svg>
